/vscmnt/brussel_pixiu_data/_data_brussel/112/vsc11236/PredSimResults/SUBJ11_gait1422_tracking/SUBJ11_gait1422_11432683.mot
version=1
nRows=4
nColumns=50
inDegrees=yes
endheader
                time	         pelvis_tilt	         pelvis_list	     pelvis_rotation	           pelvis_tx	           pelvis_ty	           pelvis_tz	       hip_flexion_r	     hip_adduction_r	      hip_rotation_r	        knee_angle_r	       ankle_angle_r	         mtp_angle_r	       hip_flexion_l	     hip_adduction_l	      hip_rotation_l	        knee_angle_l	       ankle_angle_l	         mtp_angle_l	    lumbar_extension	      lumbar_bending	     lumbar_rotation	 ercspn_r/activation	 intobl_r/activation	 extobl_r/activation	    abd_r/activation	    add_r/activation	hamstrings_r/activation	bifemsh_r/activation	glut_max_r/activation	iliopsoas_r/activation	rect_fem_r/activation	  vasti_r/activation	gastroc_r/activation	 soleus_r/activation	tib_ant_r/activation	 ercspn_l/activation	 intobl_l/activation	 extobl_l/activation	    abd_l/activation	    add_l/activation	hamstrings_l/activation	bifemsh_l/activation	glut_max_l/activation	iliopsoas_l/activation	rect_fem_l/activation	  vasti_l/activation	gastroc_l/activation	 soleus_l/activation	tib_ant_l/activation	
          0.00000000	         -2.90308507	          2.33803141	          3.34171023	          0.00000000	          0.94261883	         -0.00108386	         30.83990253	         -5.28404211	        -10.48046014	         -9.60392873	         -7.15335868	          0.12084873	        -10.74591497	          3.86888083	         -7.59097428	        -12.07663124	         16.36791346	         21.45228735	         -7.88443401	         -4.02619081	         -5.90662283	          0.07739173	          0.09141938	          0.04663528	          0.03930386	          0.06448223	          0.06486030	          0.29143862	          0.19147351	          0.11933664	          0.01001605	          0.01001628	          0.01719315	          0.01435301	          0.16370179	          0.10845421	          0.01001007	          0.01000301	          0.11093761	          0.01000478	          0.01000964	          0.16914701	          0.01002207	          0.34139474	          0.07828534	          0.04242077	          0.48550740	          0.47155274	          0.02955856	
          0.01187842	         -2.86747043	          1.90084460	          3.47587347	          0.01519228	          0.94191330	         -0.00028116	         30.64496760	         -4.69104189	         -9.38394905	        -11.10038142	         -6.56464076	          0.02402915	        -11.05290380	          3.14256553	         -7.46612173	        -13.20962565	         15.71793073	         23.58327934	         -7.75387940	         -3.28405111	         -5.88598804	          0.06460284	          0.07631428	          0.03894024	          0.03280947	          0.06015025	          0.05414261	          0.24333734	          0.16911023	          0.09961668	          0.01000161	          0.01000064	          0.01435197	          0.01198118	          0.25279904	          0.09053224	          0.02515034	          0.01000768	          0.10482240	          0.01000241	          0.01429867	          0.14121799	          0.01000529	          0.32901379	          0.06534836	          0.03541049	          0.47245352	          0.45994090	          0.02467385	
          0.02375684	         -2.88364069	          1.51772573	          3.72296144	          0.03107475	          0.94163615	          0.00056958	         30.11857152	         -4.14294947	         -8.49473825	        -12.15010817	         -5.46526265	          0.03362903	        -11.23504622	          2.42795955	         -7.26395182	        -14.47685150	         14.76164923	         25.96954884	         -7.47342558	         -2.64028442	         -5.92623770	          0.05392730	          0.12876129	          0.11362721	          0.02738780	          0.05021114	          0.04519547	          0.20312982	          0.14116414	          0.17812494	          0.14469281	          0.04246810	          0.01198028	          0.01000124	          0.28650593	          0.07557176	          0.02100762	          0.05405075	          0.08750062	          0.01000227	          0.03024837	          0.11788622	          0.02286533	          0.31396387	          0.05454928	          0.02955871	          0.46175278	          0.48276654	          0.02059635	
          0.03563527	         -2.96657063	          1.07493657	          4.03972547	          0.04718328	          0.94190350	          0.00148407	         29.45064470	         -3.54349038	         -7.83944086	        -12.73115848	         -4.95568552	          0.07924719	        -11.14401018	          1.60844332	         -7.03672239	        -16.04514542	         13.53246472	         28.59809973	         -7.09095355	         -1.95048463	         -5.98984809	          0.04501610	          0.14573197	          0.11300690	          0.02286204	          0.04191546	          0.03772691	          0.16956677	          0.11783624	          0.20860133	          0.12079776	          0.10301011	          0.01000129	          0.01000041	          0.23915957	          0.06308351	          0.01753841	          0.04512164	          0.07304082	          0.01000261	          0.11567758	          0.09841159	          0.02059036	          0.31814656	          0.04553479	          0.02467397	          0.42844229	          0.45948873	          0.01719269	
